<svg width="19" height="17" viewBox="0 0 19 17" fill="none" xmlns="http://www.w3.org/2000/svg">
<path d="M4.31 1H1.31M4.55 1L6.71 8.84C6.89029 9.45825 7.26474 10.0021 7.77799 10.3911C8.29123 10.78 8.91603 10.9936 9.56 11H18.3V1H4.55ZM11.31 14.5C11.31 15.3284 10.6384 16 9.81 16C8.98157 16 8.31 15.3284 8.31 14.5C8.31 13.6716 8.98157 13 9.81 13C10.6384 13 11.31 13.6716 11.31 14.5ZM18.31 14.5C18.31 15.3284 17.6384 16 16.81 16C15.9816 16 15.31 15.3284 15.31 14.5C15.31 13.6716 15.9816 13 16.81 13C17.6384 13 18.31 13.6716 18.31 14.5Z" stroke="#1C1C1E" stroke-linecap="round" stroke-linejoin="round"/>
</svg>
