<svg width="16" height="18" viewBox="0 0 16 18" fill="none" xmlns="http://www.w3.org/2000/svg">
<path d="M7.61002 8.89C9.81916 8.89 11.61 7.09914 11.61 4.89C11.61 2.68086 9.81916 0.889999 7.61002 0.889999C5.40088 0.889999 3.61002 2.68086 3.61002 4.89C3.61002 7.09914 5.40088 8.89 7.61002 8.89Z" stroke="#1C1C1E" stroke-linecap="round" stroke-linejoin="round"/>
<path d="M12.16 17.08C12.6851 17.0688 13.198 16.9199 13.6475 16.6483C14.097 16.3767 14.4673 15.9918 14.7214 15.5322C14.9755 15.0726 15.1044 14.5543 15.0954 14.0292C15.0864 13.5042 14.9397 12.9906 14.67 12.54C13.9582 11.4165 12.974 10.4911 11.8087 9.84995C10.6435 9.20876 9.33506 8.87254 8.00505 8.87254C6.67504 8.87254 5.36659 9.20876 4.20134 9.84995C3.03609 10.4911 2.05183 11.4165 1.34004 12.54C1.07033 12.9906 0.92363 13.5042 0.914626 14.0292C0.905622 14.5543 1.03461 15.0726 1.28871 15.5322C1.54281 15.9918 1.91312 16.3767 2.36259 16.6483C2.81207 16.9199 3.32497 17.0688 3.85002 17.08H12.16Z" stroke="#1C1C1E" stroke-linecap="round" stroke-linejoin="round"/>
</svg>
